<svg xmlns="http://www.w3.org/2000/svg" width="800" height="450" viewBox="0 0 800 450">
  <rect width="800" height="450" rx="12" fill="#0c111d"/>
  <!-- Navbar -->
  <rect x="0" y="0" width="800" height="48" rx="0" fill="#111827"/>
  <rect x="20" y="12" width="24" height="24" rx="6" fill="#1e3a5f"/>
  <rect x="52" y="16" width="80" height="10" rx="4" fill="#465fff"/>
  <rect x="52" y="30" width="50" height="6" rx="3" fill="#374151"/>
  <!-- Nav pills -->
  <rect x="280" y="10" width="240" height="28" rx="14" fill="#1f2937"/>
  <rect x="286" y="14" width="70" height="20" rx="10" fill="#374151"/>
  <rect x="362" y="14" width="70" height="20" rx="10" fill="transparent"/>
  <rect x="438" y="14" width="70" height="20" rx="10" fill="transparent"/>
  <!-- Title -->
  <rect x="24" y="68" width="120" height="14" rx="4" fill="#e5e7eb"/>
  <!-- Cards row -->
  <g>
    <rect x="24" y="100" width="240" height="180" rx="12" fill="#1a1f2e" stroke="#374151" stroke-width="1"/>
    <rect x="44" y="120" width="100" height="12" rx="4" fill="#d1d5db"/>
    <rect x="184" y="116" width="60" height="20" rx="10" fill="#052e16"/>
    <rect x="192" y="120" width="44" height="12" rx="4" fill="#22c55e"/>
    <rect x="44" y="152" width="60" height="8" rx="3" fill="#6b7280"/>
    <rect x="44" y="166" width="80" height="12" rx="4" fill="#e5e7eb"/>
    <rect x="140" y="152" width="60" height="8" rx="3" fill="#6b7280"/>
    <rect x="140" y="166" width="70" height="12" rx="4" fill="#465fff"/>
    <rect x="44" y="196" width="60" height="8" rx="3" fill="#6b7280"/>
    <rect x="44" y="210" width="50" height="10" rx="3" fill="#d1d5db"/>
    <rect x="140" y="196" width="60" height="8" rx="3" fill="#6b7280"/>
    <rect x="140" y="210" width="50" height="10" rx="3" fill="#d1d5db"/>
    <line x1="44" y1="240" x2="244" y2="240" stroke="#374151" stroke-width="1"/>
    <rect x="44" y="252" width="80" height="8" rx="3" fill="#6b7280"/>
    <rect x="200" y="252" width="30" height="8" rx="3" fill="#d1d5db"/>
    <rect x="44" y="266" width="80" height="8" rx="3" fill="#6b7280"/>
    <rect x="200" y="266" width="30" height="8" rx="3" fill="#d1d5db"/>
  </g>
  <g>
    <rect x="280" y="100" width="240" height="180" rx="12" fill="#1a1f2e" stroke="#374151" stroke-width="1"/>
    <rect x="300" y="120" width="120" height="12" rx="4" fill="#d1d5db"/>
    <rect x="440" y="116" width="60" height="20" rx="10" fill="#052e16"/>
    <rect x="448" y="120" width="44" height="12" rx="4" fill="#22c55e"/>
    <rect x="300" y="152" width="60" height="8" rx="3" fill="#6b7280"/>
    <rect x="300" y="166" width="80" height="12" rx="4" fill="#e5e7eb"/>
    <rect x="396" y="152" width="60" height="8" rx="3" fill="#6b7280"/>
    <rect x="396" y="166" width="70" height="12" rx="4" fill="#465fff"/>
  </g>
  <g>
    <rect x="536" y="100" width="240" height="180" rx="12" fill="#1a1f2e" stroke="#374151" stroke-width="1"/>
    <rect x="556" y="120" width="100" height="12" rx="4" fill="#d1d5db"/>
    <rect x="696" y="116" width="60" height="20" rx="10" fill="#450a0a"/>
    <rect x="704" y="120" width="44" height="12" rx="4" fill="#ef4444"/>
    <rect x="556" y="152" width="60" height="8" rx="3" fill="#6b7280"/>
    <rect x="556" y="166" width="80" height="12" rx="4" fill="#e5e7eb"/>
    <rect x="652" y="152" width="60" height="8" rx="3" fill="#6b7280"/>
    <rect x="652" y="166" width="70" height="12" rx="4" fill="#465fff"/>
  </g>
  <!-- Chart area -->
  <rect x="24" y="300" width="240" height="130" rx="12" fill="#1a1f2e" stroke="#374151" stroke-width="1"/>
  <rect x="44" y="316" width="80" height="10" rx="4" fill="#d1d5db"/>
  <polyline points="44,410 80,390 120,400 160,380 200,370 244,360" fill="none" stroke="#465fff" stroke-width="2"/>
  <rect x="280" y="300" width="240" height="130" rx="12" fill="#1a1f2e" stroke="#374151" stroke-width="1"/>
  <rect x="300" y="316" width="80" height="10" rx="4" fill="#d1d5db"/>
  <polyline points="300,400 340,395 380,390 420,385 460,380 500,375" fill="none" stroke="#465fff" stroke-width="2"/>
  <rect x="536" y="300" width="240" height="130" rx="12" fill="#1a1f2e" stroke="#374151" stroke-width="1"/>
  <rect x="556" y="316" width="80" height="10" rx="4" fill="#d1d5db"/>
  <polyline points="556,410 596,400 636,395 676,385 716,390 756,380" fill="none" stroke="#465fff" stroke-width="2"/>
</svg>
